<?xml version="1.0" encoding="UTF-8"?>
<svg version="1.1" xmlns="http://www.w3.org/2000/svg" width="512" height="512">
<path d="M0 0 C0.7317041 0.17724609 1.4634082 0.35449219 2.21728516 0.53710938 C33.28945042 8.25524893 62.53248049 23.83448677 88 43 C89.112212 43.81006386 90.22554502 44.61859024 91.33984375 45.42578125 C92.45594039 46.24189871 93.57183004 47.05829934 94.6875 47.875 C95.70199219 48.61492188 96.71648437 49.35484375 97.76171875 50.1171875 C98.86966797 51.04917969 98.86966797 51.04917969 100 52 C100 52.66 100 53.32 100 54 C100.8353125 54.3403125 100.8353125 54.3403125 101.6875 54.6875 C104.65837149 56.37367031 106.60822958 58.55387116 109 61 C110.3057976 62.13277266 111.61881439 63.25725696 112.9375 64.375 C116.15547513 67.1574597 118.91877642 70.07820002 121.61328125 73.36328125 C122.95753176 74.94987551 124.37224124 76.37709177 125.875 77.8125 C128 80 128 80 128 82 C128.66 82 129.32 82 130 82 C131.4432174 83.71569206 132.8038685 85.50112283 134.125 87.3125 C134.52315918 87.85575928 134.92131836 88.39901855 135.33154297 88.95874023 C136.15734017 90.08704585 136.98039051 91.21736664 137.80078125 92.34960938 C138.89856112 93.86039763 140.01105607 95.36046515 141.125 96.859375 C145.71618094 103.06464299 149.96818823 109.41838947 154 116 C154.56460937 116.91136719 155.12921875 117.82273437 155.7109375 118.76171875 C167.50145166 138.31476599 176.11791586 159.98162373 182 182 C182.28488281 183.04285156 182.56976563 184.08570313 182.86328125 185.16015625 C185.01293682 193.35089518 186.67889343 201.63803896 188 210 C188.10731445 210.67836914 188.21462891 211.35673828 188.32519531 212.05566406 C192.16520281 237.98485752 191.60396939 266.25221054 187 292 C186.83371094 292.96969727 186.66742188 293.93939453 186.49609375 294.93847656 C183.77100881 310.47650717 179.34331052 325.17634381 174 340 C173.5520104 341.27731817 173.10408282 342.5546581 172.65625 343.83203125 C167.89344592 356.88147081 161.21577374 369.1613897 154 381 C153.63148926 381.61343262 153.26297852 382.22686523 152.88330078 382.85888672 C147.14792235 392.39122195 141.04128316 401.38611109 134 410 C133.56526367 410.5377002 133.13052734 411.07540039 132.68261719 411.62939453 C121.61834665 425.23307162 108.88710462 440.49617875 94 450 C93.34 450 92.68 450 92 450 C92 450.66 92 451.32 92 452 C86.58823529 456 86.58823529 456 84 456 C84 456.66 84 457.32 84 458 C81.98046875 459.48046875 81.98046875 459.48046875 79.1875 461.1875 C75.31516841 463.57313285 71.48470098 465.99678566 67.6875 468.5 C62.35936777 471.9017487 56.83135208 474.67397203 51.15625 477.4375 C48.7812554 478.6132399 46.51446024 479.82027872 44.25 481.1875 C39.97083532 483.57395723 35.57998418 485.27404537 31 487 C30.33419922 487.2568457 29.66839844 487.51369141 28.98242188 487.77832031 C17.48049678 492.21188175 5.94819798 495.96806513 -6 499 C-7.16273438 499.29777344 -8.32546875 499.59554688 -9.5234375 499.90234375 C-22.45599661 503.04937085 -35.13208093 504.31612749 -48.42578125 504.30078125 C-49.86720397 504.30468632 -51.30862557 504.30902456 -52.75004578 504.31376648 C-55.74933628 504.32115935 -58.74850894 504.32098876 -61.74780273 504.31567383 C-64.78571368 504.31104088 -67.82322452 504.31797473 -70.86108398 504.33618164 C-102.66824948 504.52511795 -102.66824948 504.52511795 -117 501 C-118.8735249 500.60724666 -120.74720514 500.21523307 -122.62109375 499.82421875 C-124.22831663 499.45282345 -125.83384298 499.0740023 -127.4375 498.6875 C-128.31019531 498.47802734 -129.18289062 498.26855469 -130.08203125 498.05273438 C-138.89997257 495.8738083 -147.4595441 493.07750911 -156 490 C-157.16015625 489.58878906 -158.3203125 489.17757813 -159.515625 488.75390625 C-167.65659637 485.75511849 -175.29219916 481.96376075 -183 478 C-185.12429145 476.95688914 -187.24925457 475.91514462 -189.375 474.875 C-193.5641101 472.78604536 -197.5557563 470.53643735 -201.4765625 467.98046875 C-203.04331507 466.9333437 -203.04331507 466.9333437 -205 466 C-205 465.34 -205 464.68 -205 464 C-205.68835938 463.76410156 -206.37671875 463.52820313 -207.0859375 463.28515625 C-210.58712956 461.74106484 -213.54985303 459.68038828 -216.625 457.4375 C-217.54043579 456.77693604 -217.54043579 456.77693604 -218.47436523 456.10302734 C-224.16975543 451.95377266 -229.593678 447.51845448 -235 443 C-236.33417969 441.93265625 -236.33417969 441.93265625 -237.6953125 440.84375 C-239.61456664 439.30834669 -241.39456758 437.85892174 -243 436 C-243 435.34 -243 434.68 -243 434 C-243.8353125 433.690625 -243.8353125 433.690625 -244.6875 433.375 C-247.25781785 431.8467029 -248.77231142 430.01037296 -250.55859375 427.6328125 C-252.04424988 425.84938354 -252.04424988 425.84938354 -254.359375 424.15625 C-257.25060913 421.7953606 -259.46026081 419.26946348 -261.8125 416.375 C-262.60269531 415.41335938 -263.39289063 414.45171875 -264.20703125 413.4609375 C-266 411 -266 411 -266 409 C-266.66 409 -267.32 409 -268 409 C-269.16992187 407.69335938 -269.16992187 407.69335938 -270.46875 405.84375 C-270.95255127 405.15901611 -271.43635254 404.47428223 -271.93481445 403.76879883 C-272.45132568 403.02009521 -272.96783691 402.2713916 -273.5 401.5 C-274.03391357 400.73260498 -274.56782715 399.96520996 -275.11791992 399.17456055 C-283.37361655 387.21342575 -290.77515247 375.14628514 -297 362 C-297.56203125 360.86691406 -298.1240625 359.73382813 -298.703125 358.56640625 C-314.96713421 325.12262154 -322.38436884 289.86473607 -322.31567383 252.8203125 C-322.31251824 249.27051928 -322.33603633 245.72156563 -322.36132812 242.171875 C-322.39874998 228.51271769 -321.60136668 215.41761814 -319 202 C-318.87073624 201.32911346 -318.74147247 200.65822693 -318.60829163 199.9670105 C-317.82396021 195.95594857 -316.93271827 191.97898534 -316 188 C-315.74863281 186.82179687 -315.49726563 185.64359375 -315.23828125 184.4296875 C-308.66641527 155.46589807 -294.98987995 128.79329701 -279 104 C-278.43667969 103.11054687 -277.87335938 102.22109375 -277.29296875 101.3046875 C-276.76316406 100.48226562 -276.23335938 99.65984375 -275.6875 98.8125 C-275.21699219 98.07644531 -274.74648438 97.34039062 -274.26171875 96.58203125 C-273.84535156 96.05996094 -273.42898438 95.53789063 -273 95 C-272.34 95 -271.68 95 -271 95 C-270.79761719 94.32582031 -270.59523438 93.65164062 -270.38671875 92.95703125 C-268.49547786 88.92415984 -265.77061016 85.98528953 -262.8125 82.6875 C-262.22750732 82.02613037 -261.64251465 81.36476074 -261.03979492 80.68334961 C-259.8842844 79.3770436 -258.72655211 78.07269887 -257.56640625 76.77050781 C-255.08374559 73.96435833 -252.6770219 71.0933603 -250.26953125 68.22265625 C-249 67 -249 67 -247 67 C-247 66.34 -247 65.68 -247 65 C-245.390625 63.34375 -245.390625 63.34375 -243.25 61.5 C-242.55390625 60.8915625 -241.8578125 60.283125 -241.140625 59.65625 C-239.15539208 58.12023037 -237.28127955 57.0276034 -235 56 C-235 55.34 -235 54.68 -235 54 C-233.64575195 52.72241211 -233.64575195 52.72241211 -231.73828125 51.27734375 C-231.03799805 50.74326904 -230.33771484 50.20919434 -229.61621094 49.65893555 C-228.85598633 49.09086182 -228.09576172 48.52278809 -227.3125 47.9375 C-226.5380957 47.35331299 -225.76369141 46.76912598 -224.96582031 46.16723633 C-210.08366304 35.00254988 -194.81359179 25.03336292 -178 17 C-177.38334473 16.70206543 -176.76668945 16.40413086 -176.13134766 16.09716797 C-157.19689513 6.95959751 -137.76803078 0.7979467 -117.16796875 -3.359375 C-114.6407608 -3.87042568 -112.13667328 -4.42813349 -109.625 -5.0078125 C-74.20428409 -12.86841146 -34.77483328 -8.57916452 0 0 Z " fill="#242424" transform="translate(322,8)"/>
<path d="M0 0 C1.12148437 -0.00335861 2.24296875 -0.00671722 3.3984375 -0.01017761 C7.08187994 -0.01962742 10.76527668 -0.02162734 14.44873047 -0.02270508 C17.01984679 -0.02592049 19.59096292 -0.02928478 22.16207886 -0.03279114 C27.54002383 -0.0387665 32.91795081 -0.04067554 38.29589844 -0.04003906 C44.49951777 -0.03943737 50.70305041 -0.05001495 56.9066478 -0.06578273 C62.89581112 -0.08045885 68.88492748 -0.08402656 74.87411118 -0.08342934 C77.41380036 -0.08460849 79.9534902 -0.08902667 82.49316788 -0.0967617 C86.04239366 -0.10656435 89.59139558 -0.10368289 93.140625 -0.09765625 C94.708694 -0.10608551 94.708694 -0.10608551 96.30844116 -0.11468506 C103.10702368 -0.08536687 108.85577518 -0.03774579 114.25341797 4.52026367 C117.82467283 8.80576951 118.86177755 11.37667269 118.69091797 17.12182617 C118.14565629 21.53503792 116.25685489 24.3513791 113.12841797 27.39526367 C106.64919916 31.61428988 100.42681893 31.4192116 92.94702148 31.36889648 C91.79671448 31.36930435 90.64640747 31.36971222 89.46124268 31.37013245 C86.96821867 31.37032971 84.47519154 31.36630057 81.98217964 31.35852814 C78.03529035 31.34829917 74.08871665 31.35368827 70.14183044 31.36395264 C58.92173348 31.39235676 47.70179435 31.4048513 36.48168945 31.37524414 C29.6146132 31.35730387 22.74811197 31.37080845 15.88108635 31.40169525 C13.26604387 31.40780287 10.65095165 31.40292104 8.03595161 31.38681793 C4.37807102 31.3652309 0.72203829 31.38050304 -2.93579102 31.40405273 C-4.0139357 31.38868973 -5.09208038 31.37332672 -6.20289612 31.35749817 C-12.35081409 31.44197729 -15.86076302 32.23748359 -20.33880711 36.56585312 C-22.56589823 39.44839307 -22.71909286 42.30550664 -22.87548828 45.81323242 C-22.93833008 47.15224609 -22.93833008 47.15224609 -23.00244141 48.51831055 C-23.04175781 49.44708008 -23.08107422 50.37584961 -23.12158203 51.33276367 C-23.18635742 52.74332031 -23.18635742 52.74332031 -23.25244141 54.18237305 C-23.35846868 56.50319221 -23.46053232 58.82411692 -23.55908203 61.14526367 C-22.98464355 61.12431641 -22.41020508 61.10336914 -21.81835938 61.08178711 C-19.19044829 60.99812603 -16.56281813 60.94644908 -13.93408203 60.89526367 C-12.57863281 60.84499023 -12.57863281 60.84499023 -11.19580078 60.79370117 C-5.26425264 60.70710923 -2.12437135 61.29624003 2.44091797 65.14526367 C3.03904297 65.64026367 3.63716797 66.13526367 4.25341797 66.64526367 C6.86077773 69.93877073 6.79065789 73.95797979 6.71435547 78.05541992 C6.2452497 81.64072828 4.92986966 84.52531452 2.44091797 87.14526367 C-3.27241098 91.26828456 -7.57962153 91.66663475 -14.49658203 91.39526367 C-17.48720703 91.31276367 -20.47783203 91.23026367 -23.55908203 91.14526367 C-23.55908203 101.04526367 -23.55908203 110.94526367 -23.55908203 121.14526367 C-17.66528144 120.94906585 -17.66528144 120.94906585 -11.77392578 120.69482422 C-5.52865615 120.59104883 -1.33995929 122.07331552 3.44091797 126.14526367 C6.61440606 130.60798129 7.21788631 134.82356269 6.44091797 140.14526367 C4.45388833 145.58345005 1.49697269 148.37085671 -3.44873047 151.24243164 C-5.78274607 152.24094965 -7.3613008 152.37666055 -9.88720703 152.34057617 C-10.60811523 152.33558105 -11.32902344 152.33058594 -12.07177734 152.32543945 C-12.97508789 152.30723145 -13.87839844 152.28902344 -14.80908203 152.27026367 C-17.69658203 152.22901367 -20.58408203 152.18776367 -23.55908203 152.14526367 C-23.55908203 161.71526367 -23.55908203 171.28526367 -23.55908203 181.14526367 C-21.08408203 181.08338867 -18.60908203 181.02151367 -16.05908203 180.95776367 C-8.30001162 180.89688373 -2.85394133 181.41123148 3.37841797 186.58276367 C6.63176689 190.62480325 6.84713878 194.75047368 6.78857422 199.82885742 C6.05568905 204.71201366 3.09248851 207.77636578 -0.59033203 210.82885742 C-4.99655876 212.78267112 -9.11643471 212.4628157 -13.87158203 212.33276367 C-17.06845703 212.27088867 -20.26533203 212.20901367 -23.55908203 212.14526367 C-23.55908203 222.04526367 -23.55908203 231.94526367 -23.55908203 242.14526367 C-17.66528144 241.94906585 -17.66528144 241.94906585 -11.77392578 241.69482422 C-5.52865615 241.59104883 -1.33995929 243.07331552 3.44091797 247.14526367 C6.6185391 251.61379339 7.20947208 255.81875668 6.44091797 261.14526367 C4.7292688 265.99493632 2.02817714 269.71054059 -2.55908203 272.14526367 C-6.20826769 272.74185584 -9.74911717 272.62004193 -13.43408203 272.45776367 C-14.40861328 272.43520508 -15.38314453 272.41264648 -16.38720703 272.3894043 C-18.77943718 272.3307712 -21.16844353 272.2487752 -23.55908203 272.14526367 C-23.50686376 275.35488664 -23.41171435 278.56188827 -23.30908203 281.77026367 C-23.29490234 282.67389648 -23.28072266 283.5775293 -23.26611328 284.50854492 C-23.05997096 290.15684447 -22.46862081 293.763884 -18.55908203 298.14526367 C-14.41027216 301.29434022 -10.79003087 301.57477635 -5.74708557 301.53294373 C-4.57708973 301.54102203 -4.57708973 301.54102203 -3.3834576 301.54926354 C-0.77329956 301.56355583 1.83635225 301.55643637 4.4465332 301.54931641 C6.31928922 301.55501931 8.19204177 301.56198326 10.06478882 301.57011414 C15.14949423 301.5880694 20.2340273 301.5868727 25.31875491 301.58117175 C29.56339356 301.57808334 33.80799895 301.58416848 38.05263287 301.5902105 C48.06595978 301.60426189 58.07920138 301.6026893 68.0925293 301.59130859 C78.4235053 301.57982634 88.75422174 301.59390351 99.08516353 301.62070507 C107.95494238 301.64285457 116.8246397 301.64950114 125.69444424 301.64362866 C130.99200693 301.64025614 136.28940323 301.64269379 141.58694267 301.65987968 C146.56844951 301.67533474 151.54957152 301.67140918 156.53106308 301.65257454 C158.35879886 301.64888469 160.18656307 301.65200864 162.01427269 301.66246033 C164.51060564 301.67564511 167.00565989 301.66414587 169.50193787 301.64646912 C170.22422134 301.65607412 170.94650482 301.66567913 171.69067568 301.6755752 C176.72239807 301.60232777 179.54327321 300.26474399 183.44091797 297.14526367 C187.63285914 292.51282034 186.85948619 286.77098718 186.82568359 280.87255859 C186.83374275 279.16435692 186.83374275 279.16435692 186.84196472 277.42164612 C186.85174325 274.95045353 186.85468666 272.4792266 186.85160828 270.00801659 C186.84713222 266.09447721 186.86112607 262.18139049 186.88000488 258.26789856 C186.9178247 249.95620262 186.93064784 241.64453244 186.94091797 233.33276367 C186.95281785 223.710756 186.97457002 214.08897506 187.0209198 204.46706581 C187.03448188 200.61607329 187.03031999 196.76535942 187.0255127 192.91435242 C187.03485568 190.5449488 187.04502509 188.17554825 187.05615234 185.80615234 C187.04693001 184.20599777 187.04693001 184.20599777 187.03752136 182.57351685 C187.09994564 174.98883262 187.81418462 169.01634431 193.12841797 163.20776367 C197.68800407 160.3687761 201.25827429 159.52756018 206.55419922 160.55541992 C211.78786819 162.20141374 214.31839344 164.69803176 217.44091797 169.14526367 C218.6806019 171.62463154 218.57499771 173.28285102 218.58808899 176.05723572 C218.59882195 177.61516846 218.59882195 177.61516846 218.60977173 179.20457458 C218.61246063 180.34894485 218.61514954 181.49331512 218.61791992 182.67236328 C218.62449112 183.87418243 218.63106232 185.07600159 218.63783264 186.3142395 C218.65761057 190.30869798 218.66924312 194.30311618 218.67919922 198.29760742 C218.68324751 199.67488691 218.68736445 201.05216619 218.6915493 202.42944527 C218.71061219 208.90663469 218.72483548 215.3838127 218.73316127 221.8610248 C218.74290922 229.32072614 218.76915962 236.78012882 218.80966216 244.23972505 C218.83992909 250.01398963 218.85464049 255.7881692 218.85794228 261.5625115 C218.86028268 265.00643349 218.86910827 268.45003686 218.89440346 271.89387321 C218.91883646 275.74735867 218.91782105 279.60007354 218.91088867 283.45361328 C218.93010376 285.14284157 218.93010376 285.14284157 218.94970703 286.86619568 C218.87479645 298.34473517 215.202268 307.00629604 208.44091797 316.14526367 C207.86341797 317.01151367 207.28591797 317.87776367 206.69091797 318.77026367 C198.44254271 327.476882 187.6444605 332.86470896 175.67959023 333.27389812 C174.24316493 333.28064714 172.80670774 333.28199964 171.37026978 333.27897644 C170.17660768 333.28237478 170.17660768 333.28237478 168.95883119 333.28584176 C166.30131527 333.29215481 163.6438507 333.29135414 160.98632812 333.29052734 C159.07726475 333.2935205 157.16820199 333.29692339 155.25914001 333.30070496 C150.07936805 333.30953277 144.89961261 333.31188255 139.71983385 333.31252074 C136.48244461 333.31323188 133.24505956 333.3153674 130.00767136 333.31801796 C118.71002689 333.32726699 107.41239422 333.33135335 96.11474609 333.33056641 C85.58902877 333.32996557 75.06336269 333.34051973 64.53765833 333.35631007 C55.4954465 333.36939083 46.4532514 333.37475008 37.41103017 333.374111 C32.01285905 333.37385619 26.61473349 333.37669801 21.21657181 333.38728905 C16.13911945 333.39697914 11.06175613 333.39704292 5.98430061 333.38977242 C4.12353828 333.38872775 2.26277038 333.39108247 0.40201759 333.39713287 C-2.14358125 333.40487238 -4.68887411 333.40019511 -7.23446655 333.39250183 C-7.96580602 333.39764539 -8.69714549 333.40278896 -9.45064676 333.40808839 C-22.02841879 333.3244392 -32.18489677 328.14744788 -41.22705078 319.61791992 C-54.36285282 305.69000922 -54.95197874 290.37130546 -54.55908203 272.14526367 C-55.16905029 272.16621094 -55.77901855 272.1871582 -56.4074707 272.20874023 C-59.18700497 272.29219228 -61.96627523 272.34401378 -64.74658203 272.39526367 C-65.70628906 272.4287793 -66.66599609 272.46229492 -67.65478516 272.49682617 C-74.80559989 272.59579939 -74.80559989 272.59579939 -78.59033203 270.33276367 C-82.25578977 266.26003285 -84.75337927 262.59595487 -85.05908203 257.08276367 C-84.29321323 251.05154686 -81.1488667 247.01789449 -76.55908203 243.14526367 C-73.73593129 242.23283146 -71.18614714 242.02649892 -68.23095703 242.04760742 C-67.51004883 242.05010498 -66.78914063 242.05260254 -66.04638672 242.05517578 C-65.14307617 242.06427979 -64.23976563 242.07338379 -63.30908203 242.08276367 C-58.97783203 242.11370117 -58.97783203 242.11370117 -54.55908203 242.14526367 C-54.55908203 232.24526367 -54.55908203 222.34526367 -54.55908203 212.14526367 C-59.26158203 212.36182617 -59.26158203 212.36182617 -64.05908203 212.58276367 C-75.2432746 212.79981055 -75.2432746 212.79981055 -79.68408203 208.95776367 C-83.06318567 204.99961176 -84.39958633 201.89971643 -84.87158203 196.70776367 C-84.41833444 191.54074108 -82.94922479 188.46224102 -79.18408203 184.89526367 C-73.65041295 181.20615095 -69.21060459 180.88048096 -62.74658203 181.02026367 C-60.04470703 181.06151367 -57.34283203 181.10276367 -54.55908203 181.14526367 C-54.55908203 171.57526367 -54.55908203 162.00526367 -54.55908203 152.14526367 C-57.36408203 152.24838867 -60.16908203 152.35151367 -63.05908203 152.45776367 C-74.33627638 152.60061484 -74.33627638 152.60061484 -79.14501953 148.69213867 C-82.59651871 144.91646554 -84.73938089 141.3178698 -85.05908203 136.08276367 C-84.33846851 130.40793223 -82.16562494 127.56055147 -77.93408203 123.83276367 C-74.70969895 121.54175464 -73.10291986 121.02163809 -69.20751953 121.04760742 C-68.44101074 121.05010498 -67.67450195 121.05260254 -66.88476562 121.05517578 C-65.91104004 121.06427979 -64.93731445 121.07338379 -63.93408203 121.08276367 C-59.29345703 121.11370117 -59.29345703 121.11370117 -54.55908203 121.14526367 C-54.55908203 111.24526367 -54.55908203 101.34526367 -54.55908203 91.14526367 C-60.58720994 91.26342825 -60.58720994 91.26342825 -66.61450195 91.41552734 C-72.80415149 91.47662886 -76.0007804 90.33809364 -80.74658203 86.27026367 C-83.63142531 82.88803362 -84.44501928 80.17182839 -84.93408203 75.77026367 C-84.39413265 70.55075303 -82.58113935 67.36282377 -79.14501953 63.59448242 C-72.35799947 58.09358717 -62.76123095 59.75092959 -54.55908203 60.14526367 C-54.58228516 58.97350586 -54.60548828 57.80174805 -54.62939453 56.59448242 C-54.87428904 39.31560956 -53.25149021 26.42848383 -40.87939453 13.40307617 C-28.84667161 1.694467 -16.25053067 -0.00707221 0 0 Z " fill="#FCFCFC" transform="translate(173.55908203125,97.854736328125)"/>
<path d="M0 0 C10.0747407 7.05101516 17.00068948 16.44753728 20.24609375 28.390625 C22.49761148 41.16667907 20.95649444 54.64174575 13.71089172 65.57174683 C5.480978 76.81244527 -5.31452727 86.47752515 -15.13671875 96.3046875 C-16.64889922 97.82008999 -18.16100825 99.33556376 -19.67304993 100.85110474 C-22.82039212 104.0043898 -25.96974807 107.15564747 -29.12036133 110.30566406 C-33.14325007 114.32845068 -37.15918151 118.35810734 -41.17343426 122.3895092 C-44.28507215 125.51229009 -47.4012693 128.63049064 -50.51874733 131.74744034 C-52.00142117 133.231288 -53.4824883 134.71674302 -54.96185875 136.20388412 C-57.0306136 138.28249907 -59.10568392 140.35460887 -61.18237305 142.42529297 C-61.7815303 143.03006973 -62.38068756 143.6348465 -62.9980011 144.25794983 C-73.00500205 154.19203796 -83.43468291 160.16470611 -97.0625 163.6875 C-99.26996352 164.2809465 -101.47698929 164.87602348 -103.68359375 165.47265625 C-104.7804248 165.76672363 -105.87725586 166.06079102 -107.00732422 166.36376953 C-111.90482589 167.70226758 -116.76613162 169.15331268 -121.625 170.625 C-122.45620361 170.87564209 -123.28740723 171.12628418 -124.14379883 171.38452148 C-127.19119722 172.30699283 -130.2292985 173.2430995 -133.25 174.25 C-140.04392403 175.08218748 -145.39290037 173.74370855 -151.25 170.25 C-156.30274711 166.09551904 -159.6593111 161.78006936 -160.7421875 155.30859375 C-161.39450977 143.63202506 -157.6899062 133.0624855 -154.15625 122.07324219 C-153.35209491 119.56805645 -152.5742389 117.05739756 -151.8125 114.5390625 C-150.66756059 110.7619428 -149.46585144 107.00496169 -148.25 103.25 C-147.93675781 102.22648437 -147.62351563 101.20296875 -147.30078125 100.1484375 C-143.88085484 89.67220722 -136.7334747 82.43272282 -129.05493164 74.78027344 C-127.8729847 73.5906601 -127.8729847 73.5906601 -126.66716003 72.37701416 C-124.0865943 69.78265936 -121.4987808 67.19568705 -118.91015625 64.609375 C-117.100647 62.79597421 -115.29136001 60.98235161 -113.48228455 59.16851807 C-109.70064821 55.37944343 -105.91526154 51.5941678 -102.12719727 47.81152344 C-97.76328231 43.45365674 -93.4086488 39.08666957 -89.05840403 34.71516013 C-84.85074559 30.48770119 -80.63470295 26.26867594 -76.41537285 22.05286407 C-74.6305171 20.26749629 -72.84801175 18.47977547 -71.0679493 16.6896286 C-68.57724913 14.18654783 -66.07713516 11.69325148 -63.57446289 9.20214844 C-62.84746185 8.46750366 -62.12046082 7.73285889 -61.37142944 6.97595215 C-44.01487552 -10.20437577 -20.64387084 -12.94702023 0 0 Z " fill="#FBFBFB" transform="translate(401.25,105.75)"/>
<path d="M0 0 C3.99888231 2.64606894 6.40148508 5.44896829 7.8359375 10.08984375 C8.62624845 15.26010233 8.9790842 19.93166162 6.4765625 24.65625 C4.71591482 26.9583358 2.86813185 29.02506913 0.8359375 31.08984375 C0.26488281 31.71246094 -0.30617188 32.33507812 -0.89453125 32.9765625 C-2.25113543 34.41355804 -3.70026017 35.76220908 -5.1640625 37.08984375 C-5.8240625 37.08984375 -6.4840625 37.08984375 -7.1640625 37.08984375 C-7.1640625 37.74984375 -7.1640625 38.40984375 -7.1640625 39.08984375 C-11.46638808 43.85728561 -11.46638808 43.85728561 -15.1640625 45.08984375 C-15.1640625 45.74984375 -15.1640625 46.40984375 -15.1640625 47.08984375 C-16.81409078 48.44371311 -18.4815012 49.77662517 -20.1640625 51.08984375 C-20.6590625 52.07984375 -20.6590625 52.07984375 -21.1640625 53.08984375 C-21.8240625 53.08984375 -22.4840625 53.08984375 -23.1640625 53.08984375 C-23.4940625 54.07984375 -23.8240625 55.06984375 -24.1640625 56.08984375 C-24.8240625 56.08984375 -25.4840625 56.08984375 -26.1640625 56.08984375 C-26.1640625 56.74984375 -26.1640625 57.40984375 -26.1640625 58.08984375 C-27.51953125 59.421875 -27.51953125 59.421875 -29.3515625 60.90234375 C-34.64464395 65.20369316 -39.28130935 70.21795703 -44.06541443 75.06814575 C-47.23565922 78.27855559 -50.41387187 81.48102734 -53.5925293 84.68310547 C-55.2661234 86.37184448 -56.93702316 88.06325792 -58.60522461 89.75732422 C-61.0227029 92.21123255 -63.44977798 94.6552865 -65.87890625 97.09765625 C-66.61970932 97.85394318 -67.36051239 98.6102301 -68.12376404 99.38943481 C-74.04344846 105.31102415 -79.25194509 108.04077662 -87.4140625 110.08984375 C-92.72922649 111.44417583 -97.98572207 112.90357164 -103.2109375 114.57421875 C-105.1640625 115.08984375 -105.1640625 115.08984375 -108.1640625 115.08984375 C-107.19616795 108.99780159 -106.04517135 103.19832942 -103.92578125 97.3984375 C-103.10393644 95.05827792 -103.10393644 95.05827792 -102.62109375 92.4375 C-99.62024794 78.07774788 -84.51165951 67.25857519 -74.4921875 57.21484375 C-73.30586353 56.02427872 -73.30586353 56.02427872 -72.09557343 54.80966187 C-67.92333743 50.62253393 -63.7483123 46.43821199 -59.57080078 42.25634766 C-55.26108586 37.94111283 -50.96075352 33.61665047 -46.66246414 29.29003906 C-43.34580776 25.95478567 -40.02248838 22.62623323 -36.69728851 19.29949951 C-35.10797913 17.70716459 -33.52116986 16.11233019 -31.9369278 14.51495361 C-29.72830051 12.28930223 -27.51043837 10.07327363 -25.29003906 7.859375 C-24.63955093 7.19967209 -23.98906281 6.53996918 -23.31886292 5.86027527 C-16.94258425 -0.45760763 -8.88436034 -3.7365631 0 0 Z " fill="#252525" transform="translate(383.1640625,129.91015625)"/>
</svg>
